<?xml version="1.0" standalone="no"?>
<!DOCTYPE svg PUBLIC "-//W3C//DTD SVG 20010904//EN"
 "http://www.w3.org/TR/2001/REC-SVG-20010904/DTD/svg10.dtd">
<svg version="1.0" xmlns="http://www.w3.org/2000/svg"
 width="1024.000000pt" height="1024.000000pt" viewBox="0 0 1024.000000 1024.000000"
 preserveAspectRatio="xMidYMid meet">

<g transform="translate(0.000000,1024.000000) scale(0.100000,-0.100000)"
fill="#000000" stroke="none">
<path d="M1428 10222 c-16 -24 -165 -42 -337 -42 -110 0 -119 -1 -124 -20 -4
-17 -14 -20 -71 -20 -54 0 -69 -4 -83 -20 -11 -12 -30 -20 -49 -20 -18 0 -38
-8 -49 -20 -10 -11 -25 -20 -34 -20 -9 0 -24 -9 -34 -20 -9 -11 -26 -20 -37
-20 -11 0 -23 -8 -27 -17 -9 -27 -45 -63 -61 -63 -16 0 -62 -45 -62 -60 0 -5
-9 -14 -20 -20 -11 -6 -20 -15 -20 -20 0 -5 -10 -20 -23 -32 -73 -77 -106
-120 -101 -133 4 -8 -1 -18 -10 -21 -9 -4 -23 -22 -31 -40 -8 -19 -19 -34 -24
-34 -6 0 -11 -17 -11 -38 0 -25 -7 -43 -20 -55 -11 -9 -20 -27 -20 -39 0 -13
-9 -29 -20 -36 -14 -9 -20 -23 -20 -50 0 -25 -7 -43 -20 -55 -15 -13 -20 -29
-20 -66 0 -28 -5 -53 -10 -56 -6 -4 -8 -21 -4 -41 5 -25 2 -40 -10 -53 -15
-16 -16 -253 -20 -2752 -3 -2373 -8 -2918 -25 -2957 0 -1 -7 -1 -13 0 -21 5
-23 -198 -3 -218 8 -9 15 -33 15 -55 0 -23 7 -47 15 -55 12 -12 15 -46 15
-168 0 -127 3 -156 16 -167 9 -8 13 -21 10 -35 -4 -13 -2 -26 4 -29 5 -3 10
-31 10 -60 0 -44 4 -56 20 -65 15 -8 20 -21 20 -49 0 -25 7 -44 20 -56 11 -10
20 -28 20 -41 0 -13 9 -28 20 -34 13 -7 20 -21 20 -39 0 -16 10 -36 23 -49 31
-29 44 -46 51 -68 3 -10 24 -39 46 -63 22 -24 40 -48 40 -53 0 -5 7 -11 16
-15 8 -3 20 -16 25 -29 4 -13 15 -24 24 -24 8 0 15 -7 15 -15 0 -8 9 -15 21
-15 24 0 89 -49 89 -67 0 -8 14 -13 35 -13 24 0 37 -6 45 -20 6 -11 17 -20 24
-20 24 0 127 -52 133 -66 3 -10 22 -14 57 -14 29 0 58 -6 64 -12 17 -17 101
-21 397 -19 248 1 3294 2 3725 1 187 -1 533 6 1225 24 55 2 114 -1 131 -6 57
-15 2864 -39 2929 -24 22 5 50 8 62 8 11 -1 24 5 27 13 3 10 19 15 45 15 30 0
43 5 51 20 6 11 21 20 33 20 12 0 30 9 40 20 9 11 26 20 37 20 11 0 23 7 26
15 4 8 13 15 21 15 8 0 37 24 64 53 27 28 56 59 64 68 8 9 15 21 15 27 0 6 9
16 20 22 11 6 20 15 20 20 0 5 10 20 23 33 74 78 97 107 100 125 1 10 11 27
20 36 12 12 17 34 17 69 0 41 4 55 20 65 13 8 20 23 20 42 0 19 7 33 20 40 15
8 20 21 20 48 0 25 7 43 20 55 14 11 20 29 20 56 0 22 5 43 11 47 6 3 8 17 5
30 -4 14 -1 34 6 47 10 18 14 622 18 3045 l5 3024 28 23 c30 26 34 40 14 48
-28 11 -47 73 -47 155 0 49 -6 94 -16 117 -8 21 -13 43 -10 51 3 7 1 16 -4 19
-6 4 -10 25 -10 49 0 30 -6 48 -20 61 -14 13 -20 31 -20 60 0 29 -6 47 -20 60
-13 12 -20 31 -20 54 0 25 -6 40 -20 49 -11 7 -20 21 -20 32 0 11 -9 25 -20
32 -14 9 -20 24 -20 46 0 25 -5 35 -20 39 -11 3 -20 11 -20 18 0 14 -33 51
-145 166 -99 102 -112 112 -123 105 -5 -3 -17 3 -27 14 -10 11 -24 20 -32 20
-7 0 -21 9 -30 20 -10 11 -25 20 -34 20 -9 0 -28 9 -42 20 -17 13 -40 20 -71
20 -35 0 -48 4 -56 20 -9 17 -21 20 -80 20 -70 0 -100 14 -100 46 0 12 -524
14 -3879 14 -3755 0 -3880 -1 -3893 -18z m5587 -648 c116 0 361 0 545 0 184 0
605 -2 935 -5 629 -6 687 -10 729 -51 10 -10 24 -18 32 -18 7 0 19 -9 26 -20
7 -11 23 -20 36 -20 12 0 25 -6 28 -14 3 -8 19 -20 35 -26 16 -7 29 -18 29
-26 0 -7 10 -18 23 -25 23 -11 107 -97 107 -109 0 -4 9 -10 20 -13 13 -3 20
-14 20 -30 0 -14 9 -32 19 -39 16 -11 20 -30 25 -103 4 -68 9 -1749 5 -1825
-2 -52 -1 -851 2 -875 1 -16 2 -68 1 -115 -2 -47 -5 -640 -7 -1317 -4 -799 -9
-1233 -15 -1233 -6 0 -10 -11 -10 -25 0 -14 -4 -25 -10 -25 -5 0 -10 -23 -10
-51 0 -42 -5 -56 -25 -75 -13 -12 -34 -25 -45 -29 -11 -3 -24 -14 -30 -24 -6
-11 -26 -21 -52 -24 -24 -4 -68 -13 -98 -22 -47 -13 -191 -15 -1095 -16 -619
0 -1093 -5 -1170 -11 -178 -14 -538 -14 -664 0 -76 8 -798 11 -2728 11 -1834
0 -2636 4 -2664 11 -22 6 -44 8 -49 5 -5 -3 -23 1 -39 10 -17 8 -48 15 -70 15
-30 0 -43 5 -51 20 -6 11 -21 20 -33 20 -26 0 -61 34 -72 70 -4 13 -14 30 -21
38 -10 9 -14 42 -14 110 -1 53 -8 160 -17 237 -14 124 -16 410 -20 2445 -2
1268 -6 2312 -9 2320 -6 17 -5 186 2 320 5 78 9 96 25 108 11 7 19 25 19 41 0
15 9 36 20 46 11 10 20 24 20 31 0 7 9 18 19 24 11 5 23 19 26 30 3 11 13 20
21 20 8 0 14 7 14 15 0 16 45 65 60 65 5 0 14 9 20 20 7 13 21 20 40 20 18 0
37 8 47 20 11 12 30 20 50 20 22 0 33 6 38 19 5 17 19 20 93 25 48 3 107 9
132 13 25 4 1042 8 2260 10 1218 2 2219 5 2225 7 5 3 246 4 535 2 289 -1 620
-2 735 -2z m-1765 -6579 c7 -8 18 -15 24 -15 18 0 96 -62 96 -76 0 -6 7 -17
16 -24 8 -8 21 -28 29 -47 8 -18 18 -33 23 -33 5 0 13 -23 16 -52 4 -28 14
-60 22 -72 20 -29 17 -103 -6 -151 -11 -22 -19 -50 -20 -61 0 -12 -6 -27 -14
-33 -8 -7 -18 -26 -21 -43 -7 -30 -15 -41 -70 -98 -68 -69 -57 -65 -185 -65
l-119 0 -86 88 c-47 48 -85 97 -85 107 0 11 -11 29 -24 42 -28 26 -29 33 -27
210 1 120 2 128 26 154 13 14 27 35 30 45 4 10 17 22 31 25 13 3 24 10 24 16
0 5 13 14 29 19 16 6 32 17 35 25 3 8 17 14 31 14 14 0 33 9 42 20 15 17 30
20 94 20 56 0 80 -4 89 -15z m2830 -94 c14 -8 43 -32 64 -53 22 -21 46 -38 53
-38 7 0 13 -6 13 -14 0 -7 9 -24 19 -38 11 -13 27 -56 37 -96 16 -67 16 -74 0
-126 -13 -42 -32 -70 -81 -120 -36 -36 -69 -66 -74 -66 -6 0 -15 -9 -21 -20
-9 -17 -21 -20 -88 -20 -65 0 -80 3 -95 20 -9 11 -23 20 -30 20 -15 0 -118
111 -129 138 -4 9 -7 36 -7 58 -1 24 -7 47 -16 54 -20 16 -19 64 1 84 8 9 14
24 13 33 -4 47 3 84 20 100 10 10 26 30 36 46 10 15 26 27 39 27 11 0 34 9 51
20 26 17 40 19 100 13 38 -3 81 -13 95 -22z m843 9 c20 -11 43 -20 50 -20 8 0
22 -9 32 -20 10 -11 24 -20 32 -20 7 0 13 -6 13 -14 0 -7 8 -24 19 -37 10 -13
22 -38 25 -56 4 -17 14 -37 22 -44 10 -8 14 -35 14 -96 0 -70 -4 -89 -20 -110
-11 -14 -20 -31 -21 -37 -1 -21 -66 -101 -92 -114 -15 -7 -27 -17 -27 -23 0
-5 -8 -9 -18 -9 -10 0 -27 -7 -38 -15 -10 -8 -25 -15 -33 -15 -31 0 -123 53
-172 100 -29 28 -58 50 -66 50 -7 0 -13 6 -13 14 0 8 -8 21 -19 28 -10 7 -21
27 -25 45 -4 17 -14 34 -22 37 -19 7 -18 70 1 86 8 7 18 30 22 52 3 22 12 42
19 45 7 2 16 17 19 33 3 16 17 35 29 43 13 9 36 29 52 44 18 18 44 32 68 36
22 3 42 10 45 15 5 9 30 18 56 21 6 0 27 -8 48 -19z"/>
<path d="M9015 8969 c-17 -10 -41 -19 -55 -18 -14 1 -32 -1 -40 -5 -22 -9
-7202 -2 -7290 7 -95 11 -85 11 -215 1 -60 -4 -138 -8 -173 -9 l-62 0 0 -2479
c0 -1364 1 -2481 3 -2482 2 -2 1762 -4 3912 -6 3233 -2 3914 -5 3933 -16 13
-8 26 -12 28 -9 8 7 4 5021 -4 5029 -4 4 -21 -2 -37 -13z"/>
<path d="M4019 1210 c-1 -3 -1 -102 0 -222 1 -186 -1 -218 -14 -232 -9 -9 -23
-16 -31 -16 -8 0 -14 -4 -14 -9 0 -22 -73 -31 -262 -31 -186 0 -199 1 -215 20
-17 19 -30 20 -251 20 -140 0 -241 4 -252 10 -30 16 -320 18 -320 3 0 -9 -17
-13 -49 -13 -39 0 -60 -7 -95 -31 -25 -16 -48 -34 -51 -40 -4 -5 -15 -9 -26
-9 -12 0 -19 -7 -19 -20 0 -11 -7 -20 -15 -20 -9 0 -19 -8 -22 -17 -4 -10 -24
-36 -45 -58 -21 -21 -38 -48 -38 -59 0 -11 -8 -28 -17 -39 -16 -16 -18 -41
-18 -174 0 -138 2 -156 18 -168 10 -7 18 -16 18 -19 -1 -3 -1 -10 -1 -16 0 -6
42 -10 105 -10 94 0 105 2 115 20 11 20 17 20 753 16 408 -3 789 -8 846 -11
68 -4 107 -3 114 4 8 8 560 11 1858 11 1629 0 1848 -2 1859 -15 7 -8 22 -15
35 -15 27 0 45 36 45 93 0 23 7 51 15 61 10 14 15 45 15 103 0 71 -3 86 -20
100 -12 11 -20 30 -20 50 0 22 -6 36 -20 43 -11 6 -20 17 -20 25 0 8 -9 20
-20 27 -11 7 -20 21 -20 30 0 10 -7 18 -15 18 -8 0 -19 8 -24 19 -6 10 -24 21
-41 24 -17 4 -30 13 -30 22 0 8 -11 17 -24 21 -14 3 -27 12 -30 20 -4 10 -22
14 -61 14 -36 0 -57 5 -61 13 -6 16 -233 14 -263 -2 -11 -7 -204 -11 -517 -12
-275 -1 -518 -5 -541 -9 -24 -4 -43 -3 -43 1 0 5 -11 9 -24 9 -13 0 -29 6 -35
13 -7 9 -12 88 -13 221 l-3 207 -395 -3 c-217 -1 -456 -3 -532 -3 -75 0 -135
-2 -132 -4 2 -2 -8 -10 -22 -18 -19 -9 -71 -13 -180 -13 -131 0 -159 3 -181
18 -24 15 -61 17 -318 20 -251 3 -292 5 -302 19 -9 12 -30 16 -73 17 -33 1
-61 -1 -61 -4z"/>
<path d="M500 382 c-52 -2 -77 -7 -83 -17 -4 -8 -15 -15 -22 -15 -8 0 -16 -3
-16 -7 -8 -48 -10 -151 -3 -200 5 -33 10 -43 25 -43 10 0 23 -9 29 -20 11 -20
21 -20 596 -20 508 0 585 2 590 15 3 8 24 34 45 57 37 41 39 46 39 111 0 55
-4 70 -20 84 -11 10 -20 25 -20 35 0 15 -9 18 -62 18 -35 0 -279 1 -543 2
-264 2 -514 2 -555 0z"/>
<path d="M8606 375 c-11 -5 -23 -23 -27 -39 -5 -16 -14 -33 -20 -37 -7 -4 -14
-32 -17 -62 -4 -48 -2 -56 17 -66 14 -8 21 -21 21 -41 0 -45 31 -70 88 -70 68
0 91 -9 98 -36 l6 -24 204 0 c180 0 204 2 212 17 20 34 87 43 349 43 192 0
255 3 265 13 7 7 29 17 48 23 21 6 40 20 47 34 7 14 19 30 27 36 11 8 16 31
18 81 2 72 -4 93 -26 93 -8 0 -16 9 -19 20 -3 11 -11 20 -19 20 -570 6 -1256
3 -1272 -5z"/>
</g>
</svg>
