<?xml version="1.0" standalone="no"?>
<!DOCTYPE svg PUBLIC "-//W3C//DTD SVG 20010904//EN"
 "http://www.w3.org/TR/2001/REC-SVG-20010904/DTD/svg10.dtd">
<svg version="1.0" xmlns="http://www.w3.org/2000/svg"
 width="1024.000000pt" height="1024.000000pt" viewBox="0 0 1024.000000 1024.000000"
 preserveAspectRatio="xMidYMid meet">

<g transform="translate(0.000000,1024.000000) scale(0.100000,-0.100000)"
fill="#000000" stroke="none">
<path d="M882 10178 c-190 -117 -359 -253 -454 -368 -168 -200 -292 -428 -379
-693 l-49 -147 0 -2856 c0 -2680 1 -2856 17 -2850 16 6 16 5 0 -12 -16 -18
-18 -46 -15 -318 l3 -299 37 -88 c41 -98 151 -283 233 -392 133 -174 289 -281
525 -357 l75 -24 4255 1 4255 1 110 33 c267 80 509 311 676 644 l69 138 0
3339 0 3340 -80 157 c-166 329 -371 544 -725 759 l-80 49 -4185 3 -4186 2
-102 -62z m8613 -368 c3 -5 1 -10 -4 -10 -6 0 -11 5 -11 10 0 6 2 10 4 10 3 0
8 -4 11 -10z m40 -20 c3 -6 -1 -7 -9 -4 -18 7 -21 14 -7 14 6 0 13 -4 16 -10z
m-8799 -50 c-20 -22 -36 -44 -36 -49 0 -5 -24 -28 -52 -51 l-53 -43 48 45 c26
25 47 51 47 57 0 11 66 81 76 81 4 0 -10 -18 -30 -40z m8872 18 c6 -6 12 -17
12 -24 0 -8 4 -14 9 -14 5 0 14 -13 21 -30 7 -16 18 -30 25 -30 7 0 21 -12 30
-27 18 -26 16 -26 -24 6 -24 19 -53 51 -66 72 -13 20 -34 45 -47 54 l-23 17
25 -7 c14 -4 31 -12 38 -17z m-18 -3247 l0 -2889 -92 -7 c-51 -3 -118 -5 -148
-4 -180 6 -8414 1 -8455 -5 -59 -8 -102 13 -135 66 -20 33 -20 57 -20 2875 l0
2843 198 3 c108 1 2099 3 4425 5 l4227 2 0 -2889z m-9247 -2946 c-106 -90 -89
-257 32 -326 28 -16 45 -29 39 -29 -5 0 -31 13 -56 29 -84 53 -119 151 -89
244 11 31 89 117 108 117 3 0 -12 -16 -34 -35z m-199 -275 c7 0 21 -7 32 -16
18 -14 18 -15 -5 -3 -13 6 -47 9 -77 7 -30 -3 -54 -3 -54 -2 0 7 66 22 78 18
8 -2 19 -4 26 -4z m77 -47 c13 -16 12 -17 -3 -4 -17 13 -22 21 -14 21 2 0 10
-8 17 -17z m332 -40 c-13 -2 -35 -2 -50 0 -16 2 -5 4 22 4 28 0 40 -2 28 -4z
m6860 0 c-1194 -2 -3152 -2 -4350 0 -1198 1 -220 2 2172 2 2393 0 3373 -1
2178 -2z m728 -313 c127 -49 209 -142 209 -237 0 -85 -33 -156 -107 -230 -72
-72 -107 -91 -191 -99 -114 -12 -225 44 -273 137 -15 30 -19 59 -19 132 0 117
20 182 72 242 74 84 183 103 309 55z m-2834 -8 c64 -33 107 -82 136 -156 35
-87 38 -216 7 -299 -27 -73 -104 -146 -185 -176 -79 -30 -217 -27 -281 6 -62
33 -110 92 -132 165 -54 174 -31 301 71 395 80 74 138 94 257 90 63 -3 96 -9
127 -25z m3710 15 c114 -42 187 -152 186 -280 -1 -85 -25 -147 -74 -194 -117
-111 -158 -133 -249 -133 -111 0 -202 65 -262 188 -29 58 -33 77 -33 142 0 57
6 85 22 116 24 44 85 104 132 129 79 40 213 56 278 32z m-8472 -537 c-3 -5
-12 -10 -18 -10 -7 0 -6 4 3 10 19 12 23 12 15 0z"/>
<path d="M1297 8976 c-63 -17 -112 -66 -159 -159 l-38 -74 0 -2304 c0 -2221 1
-2305 19 -2345 25 -54 60 -80 143 -105 l69 -21 3812 5 c2951 4 3821 7 3851 17
23 7 62 34 93 64 l53 51 1 2415 0 2415 -25 19 c-14 10 -46 22 -73 27 -26 4
-1769 8 -3873 8 -3114 0 -3834 -3 -3873 -13z"/>
<path d="M3810 1278 c-85 -44 -85 -47 -81 -307 l3 -228 -572 -7 -572 -6 -43
-26 c-105 -61 -198 -174 -188 -226 5 -25 2 -28 -20 -28 -22 0 -28 -6 -36 -37
-20 -76 -23 -122 -11 -194 17 -99 30 -122 94 -158 l53 -31 2705 0 2705 0 7 53
c15 129 2 270 -35 384 -15 44 -36 80 -76 125 -64 72 -77 81 -171 110 -88 28
-94 28 -616 34 l-448 5 3 229 c4 261 4 264 -81 308 l-44 22 -1266 0 -1266 0
-44 -22z"/>
<path d="M430 430 c-83 -28 -140 -106 -140 -192 0 -72 52 -153 122 -189 35
-18 66 -19 611 -19 l574 0 33 22 c55 38 74 71 78 143 9 132 -17 194 -99 235
-37 19 -62 20 -581 20 -506 -1 -547 -2 -598 -20z"/>
<path d="M8635 431 c-79 -36 -105 -86 -105 -203 0 -82 11 -112 58 -161 l36
-37 598 0 c386 0 615 4 647 11 62 13 134 73 152 127 39 118 -19 233 -135 267
-41 13 -148 15 -630 15 -543 0 -584 -2 -621 -19z"/>
</g>
</svg>
